<mxfile host="app.diagrams.net" modified="2022-05-10T20:02:43.855Z" agent="5.0 (Windows NT 10.0; Win64; x64) AppleWebKit/537.36 (KHTML, like Gecko) Chrome/101.0.4951.54 Safari/537.36" etag="W9ZgP8ji3ni_LQ7sAeRq" version="18.0.2" type="github">
  <diagram id="EP-uBbGpcZ63rwk2b_Wm" name="Page-1">
    <mxGraphModel dx="1240" dy="689" grid="1" gridSize="10" guides="1" tooltips="1" connect="1" arrows="1" fold="1" page="1" pageScale="1" pageWidth="1169" pageHeight="827" math="0" shadow="0">
      <root>
        <mxCell id="0" />
        <mxCell id="1" parent="0" />
        <mxCell id="LVynTK72GNAO64dXb74h-12" style="edgeStyle=orthogonalEdgeStyle;rounded=0;orthogonalLoop=1;jettySize=auto;html=1;exitX=1;exitY=0.5;exitDx=0;exitDy=0;entryX=0;entryY=0.5;entryDx=0;entryDy=0;" edge="1" parent="1" source="LVynTK72GNAO64dXb74h-1" target="LVynTK72GNAO64dXb74h-3">
          <mxGeometry relative="1" as="geometry" />
        </mxCell>
        <mxCell id="LVynTK72GNAO64dXb74h-1" value="Початок" style="ellipse;whiteSpace=wrap;html=1;aspect=fixed;" vertex="1" parent="1">
          <mxGeometry y="450" width="80" height="80" as="geometry" />
        </mxCell>
        <mxCell id="LVynTK72GNAO64dXb74h-2" value="Кінець" style="ellipse;whiteSpace=wrap;html=1;aspect=fixed;" vertex="1" parent="1">
          <mxGeometry x="1341" y="300" width="80" height="80" as="geometry" />
        </mxCell>
        <mxCell id="LVynTK72GNAO64dXb74h-13" style="edgeStyle=orthogonalEdgeStyle;rounded=0;orthogonalLoop=1;jettySize=auto;html=1;exitX=1;exitY=0.5;exitDx=0;exitDy=0;entryX=0;entryY=0.5;entryDx=0;entryDy=0;" edge="1" parent="1" source="LVynTK72GNAO64dXb74h-3" target="LVynTK72GNAO64dXb74h-4">
          <mxGeometry relative="1" as="geometry" />
        </mxCell>
        <mxCell id="LVynTK72GNAO64dXb74h-3" value="Виникнення проблеми/Виявлення несправності" style="rounded=0;whiteSpace=wrap;html=1;" vertex="1" parent="1">
          <mxGeometry x="130" y="460" width="120" height="60" as="geometry" />
        </mxCell>
        <mxCell id="LVynTK72GNAO64dXb74h-14" style="edgeStyle=orthogonalEdgeStyle;rounded=0;orthogonalLoop=1;jettySize=auto;html=1;exitX=1;exitY=0.5;exitDx=0;exitDy=0;entryX=0;entryY=0.5;entryDx=0;entryDy=0;" edge="1" parent="1" source="LVynTK72GNAO64dXb74h-4" target="LVynTK72GNAO64dXb74h-5">
          <mxGeometry relative="1" as="geometry">
            <mxPoint x="600.0000000000002" y="489.57142857142867" as="targetPoint" />
          </mxGeometry>
        </mxCell>
        <mxCell id="LVynTK72GNAO64dXb74h-4" value="Дзвінок у відділ ІТ-підтримки" style="rounded=0;whiteSpace=wrap;html=1;" vertex="1" parent="1">
          <mxGeometry x="290" y="460" width="120" height="60" as="geometry" />
        </mxCell>
        <mxCell id="LVynTK72GNAO64dXb74h-36" value="Ні" style="edgeStyle=orthogonalEdgeStyle;rounded=0;orthogonalLoop=1;jettySize=auto;html=1;exitX=0.5;exitY=1;exitDx=0;exitDy=0;entryX=0;entryY=0.5;entryDx=0;entryDy=0;fontSize=13;" edge="1" parent="1" source="LVynTK72GNAO64dXb74h-5" target="LVynTK72GNAO64dXb74h-11">
          <mxGeometry relative="1" as="geometry" />
        </mxCell>
        <mxCell id="LVynTK72GNAO64dXb74h-38" value="&lt;font style=&quot;font-size: 14px;&quot;&gt;Так&lt;/font&gt;" style="edgeStyle=orthogonalEdgeStyle;rounded=0;orthogonalLoop=1;jettySize=auto;html=1;exitX=0.5;exitY=0;exitDx=0;exitDy=0;entryX=0;entryY=0.5;entryDx=0;entryDy=0;" edge="1" parent="1" source="LVynTK72GNAO64dXb74h-5" target="LVynTK72GNAO64dXb74h-7">
          <mxGeometry relative="1" as="geometry" />
        </mxCell>
        <mxCell id="LVynTK72GNAO64dXb74h-5" value="Проблему &lt;br&gt;можна вирішити по телефону?" style="rhombus;whiteSpace=wrap;html=1;" vertex="1" parent="1">
          <mxGeometry x="450" y="450" width="160" height="80" as="geometry" />
        </mxCell>
        <mxCell id="LVynTK72GNAO64dXb74h-18" style="edgeStyle=orthogonalEdgeStyle;rounded=0;orthogonalLoop=1;jettySize=auto;html=1;exitX=1;exitY=0.5;exitDx=0;exitDy=0;entryX=0;entryY=0.5;entryDx=0;entryDy=0;" edge="1" parent="1" source="LVynTK72GNAO64dXb74h-7" target="LVynTK72GNAO64dXb74h-17">
          <mxGeometry relative="1" as="geometry" />
        </mxCell>
        <mxCell id="LVynTK72GNAO64dXb74h-7" value="Перенаправлення дзвінку до спеціаліста з ІТ-підтримки" style="rounded=0;whiteSpace=wrap;html=1;" vertex="1" parent="1">
          <mxGeometry x="610" y="310" width="120" height="60" as="geometry" />
        </mxCell>
        <mxCell id="LVynTK72GNAO64dXb74h-41" value="Ні" style="edgeStyle=orthogonalEdgeStyle;rounded=0;orthogonalLoop=1;jettySize=auto;html=1;exitX=0.5;exitY=1;exitDx=0;exitDy=0;entryX=0.5;entryY=0;entryDx=0;entryDy=0;fontSize=13;" edge="1" parent="1" source="LVynTK72GNAO64dXb74h-8" target="LVynTK72GNAO64dXb74h-11">
          <mxGeometry relative="1" as="geometry">
            <Array as="points">
              <mxPoint x="1010" y="490" />
              <mxPoint x="670" y="490" />
            </Array>
          </mxGeometry>
        </mxCell>
        <mxCell id="LVynTK72GNAO64dXb74h-50" value="Так" style="edgeStyle=orthogonalEdgeStyle;rounded=0;orthogonalLoop=1;jettySize=auto;html=1;exitX=1;exitY=0.5;exitDx=0;exitDy=0;entryX=0;entryY=0.5;entryDx=0;entryDy=0;fontSize=13;" edge="1" parent="1" source="LVynTK72GNAO64dXb74h-8" target="LVynTK72GNAO64dXb74h-42">
          <mxGeometry relative="1" as="geometry" />
        </mxCell>
        <mxCell id="LVynTK72GNAO64dXb74h-8" value="Проблему &lt;br&gt;вирішено?" style="rhombus;whiteSpace=wrap;html=1;" vertex="1" parent="1">
          <mxGeometry x="930" y="300" width="160" height="80" as="geometry" />
        </mxCell>
        <mxCell id="LVynTK72GNAO64dXb74h-45" style="edgeStyle=orthogonalEdgeStyle;rounded=0;orthogonalLoop=1;jettySize=auto;html=1;exitX=1;exitY=0.5;exitDx=0;exitDy=0;entryX=0;entryY=0.5;entryDx=0;entryDy=0;" edge="1" parent="1" source="LVynTK72GNAO64dXb74h-9" target="LVynTK72GNAO64dXb74h-44">
          <mxGeometry relative="1" as="geometry" />
        </mxCell>
        <mxCell id="LVynTK72GNAO64dXb74h-9" value="Передача задачі інженеру вищого рівня" style="rounded=0;whiteSpace=wrap;html=1;" vertex="1" parent="1">
          <mxGeometry x="1310" y="620" width="120" height="60" as="geometry" />
        </mxCell>
        <mxCell id="LVynTK72GNAO64dXb74h-24" style="edgeStyle=orthogonalEdgeStyle;rounded=0;orthogonalLoop=1;jettySize=auto;html=1;exitX=1;exitY=0.5;exitDx=0;exitDy=0;entryX=0;entryY=0.5;entryDx=0;entryDy=0;" edge="1" parent="1" source="LVynTK72GNAO64dXb74h-10" target="LVynTK72GNAO64dXb74h-23">
          <mxGeometry relative="1" as="geometry" />
        </mxCell>
        <mxCell id="LVynTK72GNAO64dXb74h-10" value="Виклик інженера до відповідного відділу підприємства" style="rounded=0;whiteSpace=wrap;html=1;" vertex="1" parent="1">
          <mxGeometry x="770" y="620" width="120" height="60" as="geometry" />
        </mxCell>
        <mxCell id="LVynTK72GNAO64dXb74h-22" style="edgeStyle=orthogonalEdgeStyle;rounded=0;orthogonalLoop=1;jettySize=auto;html=1;exitX=1;exitY=0.5;exitDx=0;exitDy=0;entryX=0;entryY=0.5;entryDx=0;entryDy=0;" edge="1" parent="1" source="LVynTK72GNAO64dXb74h-11" target="LVynTK72GNAO64dXb74h-10">
          <mxGeometry relative="1" as="geometry" />
        </mxCell>
        <mxCell id="LVynTK72GNAO64dXb74h-11" value="Реєстрація заяви про необхідність технічної підтримки у відділі" style="rounded=0;whiteSpace=wrap;html=1;" vertex="1" parent="1">
          <mxGeometry x="610" y="620" width="120" height="60" as="geometry" />
        </mxCell>
        <mxCell id="LVynTK72GNAO64dXb74h-40" style="edgeStyle=orthogonalEdgeStyle;rounded=0;orthogonalLoop=1;jettySize=auto;html=1;exitX=1;exitY=0.5;exitDx=0;exitDy=0;entryX=0;entryY=0.5;entryDx=0;entryDy=0;" edge="1" parent="1" source="LVynTK72GNAO64dXb74h-17" target="LVynTK72GNAO64dXb74h-8">
          <mxGeometry relative="1" as="geometry" />
        </mxCell>
        <mxCell id="LVynTK72GNAO64dXb74h-17" value="Консультація та допомога з вирішенням питання" style="rounded=0;whiteSpace=wrap;html=1;" vertex="1" parent="1">
          <mxGeometry x="770" y="310" width="120" height="60" as="geometry" />
        </mxCell>
        <mxCell id="LVynTK72GNAO64dXb74h-43" value="Ні" style="edgeStyle=orthogonalEdgeStyle;rounded=0;orthogonalLoop=1;jettySize=auto;html=1;exitX=1;exitY=0.5;exitDx=0;exitDy=0;entryX=0;entryY=0.5;entryDx=0;entryDy=0;fontSize=13;" edge="1" parent="1" source="LVynTK72GNAO64dXb74h-20" target="LVynTK72GNAO64dXb74h-9">
          <mxGeometry relative="1" as="geometry" />
        </mxCell>
        <mxCell id="LVynTK72GNAO64dXb74h-48" style="edgeStyle=orthogonalEdgeStyle;rounded=0;orthogonalLoop=1;jettySize=auto;html=1;exitX=0.5;exitY=1;exitDx=0;exitDy=0;entryX=0;entryY=0.5;entryDx=0;entryDy=0;" edge="1" parent="1" source="LVynTK72GNAO64dXb74h-20" target="LVynTK72GNAO64dXb74h-34">
          <mxGeometry relative="1" as="geometry" />
        </mxCell>
        <mxCell id="LVynTK72GNAO64dXb74h-51" value="Так" style="edgeLabel;html=1;align=center;verticalAlign=middle;resizable=0;points=[];fontSize=13;" vertex="1" connectable="0" parent="LVynTK72GNAO64dXb74h-48">
          <mxGeometry x="0.0794" y="5" relative="1" as="geometry">
            <mxPoint as="offset" />
          </mxGeometry>
        </mxCell>
        <mxCell id="LVynTK72GNAO64dXb74h-20" value="Проблему &lt;br&gt;вирішено?" style="rhombus;whiteSpace=wrap;html=1;" vertex="1" parent="1">
          <mxGeometry x="1090" y="610" width="160" height="80" as="geometry" />
        </mxCell>
        <mxCell id="LVynTK72GNAO64dXb74h-39" style="edgeStyle=orthogonalEdgeStyle;rounded=0;orthogonalLoop=1;jettySize=auto;html=1;exitX=1;exitY=0.5;exitDx=0;exitDy=0;entryX=0;entryY=0.5;entryDx=0;entryDy=0;" edge="1" parent="1" source="LVynTK72GNAO64dXb74h-23" target="LVynTK72GNAO64dXb74h-20">
          <mxGeometry relative="1" as="geometry" />
        </mxCell>
        <mxCell id="LVynTK72GNAO64dXb74h-23" value="Впровадження необхідних заходів задля вирішення проблеми" style="rounded=0;whiteSpace=wrap;html=1;" vertex="1" parent="1">
          <mxGeometry x="930" y="620" width="120" height="60" as="geometry" />
        </mxCell>
        <mxCell id="LVynTK72GNAO64dXb74h-29" value="Кінець" style="ellipse;whiteSpace=wrap;html=1;aspect=fixed;" vertex="1" parent="1">
          <mxGeometry x="1490" y="740" width="80" height="80" as="geometry" />
        </mxCell>
        <mxCell id="LVynTK72GNAO64dXb74h-47" style="edgeStyle=orthogonalEdgeStyle;rounded=0;orthogonalLoop=1;jettySize=auto;html=1;exitX=1;exitY=0.5;exitDx=0;exitDy=0;entryX=0;entryY=0.5;entryDx=0;entryDy=0;" edge="1" parent="1" source="LVynTK72GNAO64dXb74h-34" target="LVynTK72GNAO64dXb74h-29">
          <mxGeometry relative="1" as="geometry">
            <mxPoint x="1480" y="749.5714285714287" as="targetPoint" />
          </mxGeometry>
        </mxCell>
        <mxCell id="LVynTK72GNAO64dXb74h-34" value="Зміна статусу заяви як &quot;виконано&quot;" style="rounded=0;whiteSpace=wrap;html=1;" vertex="1" parent="1">
          <mxGeometry x="1310" y="750" width="120" height="60" as="geometry" />
        </mxCell>
        <mxCell id="LVynTK72GNAO64dXb74h-49" style="edgeStyle=orthogonalEdgeStyle;rounded=0;orthogonalLoop=1;jettySize=auto;html=1;exitX=1;exitY=0.5;exitDx=0;exitDy=0;entryX=0;entryY=0.5;entryDx=0;entryDy=0;" edge="1" parent="1" source="LVynTK72GNAO64dXb74h-42" target="LVynTK72GNAO64dXb74h-2">
          <mxGeometry relative="1" as="geometry" />
        </mxCell>
        <mxCell id="LVynTK72GNAO64dXb74h-42" value="Зміна статусу заяви як &quot;виконано&quot;" style="rounded=0;whiteSpace=wrap;html=1;" vertex="1" parent="1">
          <mxGeometry x="1170" y="310" width="120" height="60" as="geometry" />
        </mxCell>
        <mxCell id="LVynTK72GNAO64dXb74h-46" style="edgeStyle=orthogonalEdgeStyle;rounded=0;orthogonalLoop=1;jettySize=auto;html=1;exitX=1;exitY=0.5;exitDx=0;exitDy=0;entryX=0.5;entryY=0;entryDx=0;entryDy=0;" edge="1" parent="1" source="LVynTK72GNAO64dXb74h-44" target="LVynTK72GNAO64dXb74h-20">
          <mxGeometry relative="1" as="geometry">
            <Array as="points">
              <mxPoint x="1630" y="650" />
              <mxPoint x="1630" y="530" />
              <mxPoint x="1170" y="530" />
            </Array>
          </mxGeometry>
        </mxCell>
        <mxCell id="LVynTK72GNAO64dXb74h-44" value="Впровадження необхідних заходів задля вирішення проблеми" style="rounded=0;whiteSpace=wrap;html=1;" vertex="1" parent="1">
          <mxGeometry x="1470" y="620" width="120" height="60" as="geometry" />
        </mxCell>
        <mxCell id="LVynTK72GNAO64dXb74h-52" value="Працівник підприємства" style="text;html=1;strokeColor=none;fillColor=none;align=center;verticalAlign=middle;whiteSpace=wrap;rounded=0;fontSize=13;" vertex="1" parent="1">
          <mxGeometry x="160" y="421" width="70" height="29" as="geometry" />
        </mxCell>
        <mxCell id="LVynTK72GNAO64dXb74h-53" value="Менеджер відділу" style="text;html=1;strokeColor=none;fillColor=none;align=center;verticalAlign=middle;whiteSpace=wrap;rounded=0;fontSize=13;" vertex="1" parent="1">
          <mxGeometry x="320" y="421" width="60" height="30" as="geometry" />
        </mxCell>
        <mxCell id="LVynTK72GNAO64dXb74h-54" value="Менеджер відділу ІТ-підтримки&amp;nbsp;" style="text;html=1;strokeColor=none;fillColor=none;align=center;verticalAlign=middle;whiteSpace=wrap;rounded=0;fontSize=13;" vertex="1" parent="1">
          <mxGeometry x="610" y="270" width="120" height="30" as="geometry" />
        </mxCell>
        <mxCell id="LVynTK72GNAO64dXb74h-55" value="Спеціаліст" style="text;html=1;strokeColor=none;fillColor=none;align=center;verticalAlign=middle;whiteSpace=wrap;rounded=0;fontSize=13;" vertex="1" parent="1">
          <mxGeometry x="800" y="270" width="60" height="30" as="geometry" />
        </mxCell>
        <mxCell id="LVynTK72GNAO64dXb74h-56" value="Менеджер відділу ІТ-підтримки" style="text;html=1;strokeColor=none;fillColor=none;align=center;verticalAlign=middle;whiteSpace=wrap;rounded=0;fontSize=13;" vertex="1" parent="1">
          <mxGeometry x="770" y="580" width="120" height="30" as="geometry" />
        </mxCell>
        <mxCell id="LVynTK72GNAO64dXb74h-57" value="Менеджер відділу ІТ-підтримки&amp;nbsp;" style="text;html=1;strokeColor=none;fillColor=none;align=center;verticalAlign=middle;whiteSpace=wrap;rounded=0;fontSize=13;" vertex="1" parent="1">
          <mxGeometry x="1170" y="270" width="120" height="30" as="geometry" />
        </mxCell>
        <mxCell id="LVynTK72GNAO64dXb74h-58" value="Менеджер відділу ІТ-підтримки&amp;nbsp;" style="text;html=1;strokeColor=none;fillColor=none;align=center;verticalAlign=middle;whiteSpace=wrap;rounded=0;fontSize=13;" vertex="1" parent="1">
          <mxGeometry x="1310" y="710" width="120" height="30" as="geometry" />
        </mxCell>
        <mxCell id="LVynTK72GNAO64dXb74h-60" value="Менеджер відділу ІТ-підтримки&amp;nbsp;" style="text;html=1;strokeColor=none;fillColor=none;align=center;verticalAlign=middle;whiteSpace=wrap;rounded=0;fontSize=13;" vertex="1" parent="1">
          <mxGeometry x="1310" y="580" width="120" height="30" as="geometry" />
        </mxCell>
        <mxCell id="LVynTK72GNAO64dXb74h-61" value="Інженер" style="text;html=1;strokeColor=none;fillColor=none;align=center;verticalAlign=middle;whiteSpace=wrap;rounded=0;fontSize=13;" vertex="1" parent="1">
          <mxGeometry x="1500" y="580" width="60" height="30" as="geometry" />
        </mxCell>
        <mxCell id="LVynTK72GNAO64dXb74h-62" value="Інженер" style="text;html=1;strokeColor=none;fillColor=none;align=center;verticalAlign=middle;whiteSpace=wrap;rounded=0;fontSize=13;" vertex="1" parent="1">
          <mxGeometry x="960" y="580" width="60" height="30" as="geometry" />
        </mxCell>
        <mxCell id="LVynTK72GNAO64dXb74h-64" value="Менеджер відділу ІТ-підтримки" style="text;html=1;strokeColor=none;fillColor=none;align=center;verticalAlign=middle;whiteSpace=wrap;rounded=0;fontSize=13;" vertex="1" parent="1">
          <mxGeometry x="610" y="580" width="120" height="30" as="geometry" />
        </mxCell>
      </root>
    </mxGraphModel>
  </diagram>
</mxfile>
